<?xml version="1.0" encoding="utf-8"?>
<!-- Generator: Adobe Illustrator 16.0.0, SVG Export Plug-In . SVG Version: 6.00 Build 0)  -->
<!DOCTYPE svg PUBLIC "-//W3C//DTD SVG 1.1//EN" "http://www.w3.org/Graphics/SVG/1.1/DTD/svg11.dtd">
<svg version="1.1" xmlns="http://www.w3.org/2000/svg" xmlns:xlink="http://www.w3.org/1999/xlink" x="0px" y="0px" width="1200px"
	 height="1200px" viewBox="0 0 1200 1200" enable-background="new 0 0 1200 1200" xml:space="preserve">
<g id="Capa_1">
</g>
<g id="Bocets_Tazas">
</g>
<g id="Capa_4">
	<rect fill="#29273F" stroke="#29273F" stroke-miterlimit="10" width="1200" height="1200"/>
</g>
<g id="Capa_10">
</g>
<g id="Capa_11">
</g>
<g id="TituloPruebas">
	<g id="Capa_8">
	</g>
</g>
<g id="Capa_12">
</g>
<g id="Capa_13">
</g>
<g id="Capa_14">
</g>
<g id="Capa_15">
</g>
<g id="Capa_16">
</g>
<g id="Capa_17">
	<g>
		<polygon fill="#F9B233" points="806.315,578.688 899.5,536.802 894.866,664.156 803.742,705.476 		"/>
		<path d="M806.218,578.623l11.615-5.461l11.575-5.398l23.196-10.693l23.254-10.566l11.628-5.281l11.658-5.211l1.277-0.571
			l-0.057,1.392l-0.645,15.917l-0.736,15.914c-0.471,10.61-1.036,21.216-1.434,31.829l-0.645,15.917l-0.536,15.921
			c-0.38,10.613-0.634,21.23-0.946,31.847l-0.01,0.341l-0.317,0.146l-45.412,20.99l-22.744,10.411l-11.372,5.205l-11.393,5.16
			l-1.518,0.688l0.035-1.664l0.688-31.696l0.826-31.693c0.264-10.564,0.604-21.127,0.927-31.691
			c0.3-10.563,0.723-21.125,1.082-31.688L806.218,578.623z M806.415,578.753c-0.069,10.547-0.075,21.096-0.204,31.642
			c-0.106,10.567-0.194,21.136-0.359,31.703l-0.461,31.7l-0.6,31.698l-1.481-0.977l11.388-5.17l11.409-5.124l22.817-10.249
			l45.712-20.329l-0.327,0.487c0.46-10.61,0.979-21.218,1.371-31.831l0.621-15.917l0.515-15.922
			c0.375-10.613,0.581-21.232,0.883-31.849l0.423-15.925l0.514-15.921l1.221,0.821l-11.638,5.26l-11.668,5.19l-23.339,10.376
			l-23.396,10.25l-11.721,5.073L806.415,578.753z"/>
	</g>
	<g>
		<polygon fill="#36A9E1" points="717.25,618.309 806.315,578.688 803.742,705.476 715.19,745.097 		"/>
		<path d="M717.152,618.244l11.104-5.174l11.062-5.114l22.171-10.121l22.222-10.005l11.113-4.997
			c3.699-1.677,7.421-3.305,11.137-4.945l1.263-0.558l-0.032,1.375l-0.372,15.847l-0.479,15.846l-0.484,15.845
			c-0.161,5.282-0.336,10.563-0.451,15.846l-0.387,15.848l-0.291,15.849l-0.246,15.851l-0.188,15.851l-0.004,0.344l-0.321,0.147
			l-22.048,10.107l-22.079,10.036l-22.102,9.985c-7.371,3.322-14.727,6.676-22.118,9.95l-1.511,0.669l0.029-1.646l0.559-31.696
			l0.333-15.847l0.36-15.847l0.374-15.847l0.426-15.846c0.259-10.564,0.64-21.127,0.96-31.69L717.152,618.244z M717.35,618.375
			c-0.022,10.547,0.015,21.094-0.069,31.64l-0.09,15.851l-0.141,15.851l-0.154,15.851l-0.183,15.85l-0.471,31.697l-1.481-0.977
			c7.367-3.329,14.77-6.579,22.158-9.86l22.174-9.825l22.196-9.774l22.229-9.703l-0.325,0.491l0.455-15.847l0.397-15.847
			l0.352-15.848l0.257-15.85c0.1-5.283,0.14-10.567,0.192-15.852l0.159-15.852l0.165-15.852l0.271-15.85l1.23,0.817
			c-3.706,1.662-7.407,3.335-11.13,4.96l-11.152,4.909l-22.312,9.805l-22.362,9.69l-11.205,4.791L717.35,618.375z"/>
	</g>
	<g>
		<polygon fill="#FFED00" points="622.521,659.629 717.25,618.309 715.19,745.097 623.035,785.285 		"/>
		<path d="M622.421,659.564l11.813-5.394l11.771-5.329l23.584-10.556l23.642-10.424l11.82-5.211l11.855-5.133l1.234-0.535
			l-0.027,1.339l-0.33,15.848l-0.414,15.846c-0.261,10.564-0.602,21.127-0.784,31.693l-0.321,15.847l-0.209,15.85
			c-0.167,10.565-0.198,21.134-0.301,31.7l-0.003,0.358l-0.335,0.148l-45.933,20.425l-23.004,10.13
			c-7.664,3.384-15.334,6.753-23.024,10.078l-1.462,0.632l-0.004-1.588l-0.086-31.414l0.057-31.415
			c0.006-10.472,0.092-20.943,0.154-31.415c0.042-10.472,0.208-20.943,0.308-31.416V659.564z M622.622,659.695
			c0.185,10.448,0.436,20.896,0.563,31.346c0.148,10.471,0.32,20.941,0.411,31.412l0.313,31.414l0.172,31.414l-1.465-0.956
			c7.668-3.373,15.357-6.701,23.052-10.016l23.075-9.965l46.221-19.764l-0.337,0.507c0.241-10.565,0.553-21.128,0.729-31.694
			l0.305-15.848l0.194-15.85c0.16-10.565,0.163-21.134,0.245-31.701l0.102-15.851l0.185-15.85l1.207,0.804l-11.827,5.197
			l-11.861,5.119l-23.724,10.236l-23.78,10.104l-11.913,5.001L622.622,659.695z"/>
	</g>
	<g>
		<polygon fill="#95C11F" points="623.035,785.285 623.035,910.94 714.16,870.753 715.19,745.097 		"/>
		<path d="M623.137,785.352l0.263,15.641c0.089,5.235,0.148,10.471,0.19,15.707l0.151,15.707l0.086,15.706l0.062,15.707
			c0.009,5.236,0.069,10.472,0.034,15.707l-0.05,15.707c0,5.235-0.081,10.472-0.125,15.707l-1-0.652l22.883-9.814
			c7.637-3.252,15.224-6.617,22.837-9.921c7.613-3.305,15.176-6.726,22.766-10.083l22.707-10.214l-0.324,0.492l0.013-31.416
			c-0.013-10.472,0.027-20.943,0.084-31.415l0.162-31.415l0.301-31.413l1.42,0.938l-11.531,4.997l-11.552,4.949l-23.105,9.895
			l-23.144,9.805L623.137,785.352z M622.937,785.221l22.948-10.417l22.934-10.289l22.972-10.199l11.487-5.098l11.508-5.051
			l1.43-0.628l-0.01,1.566l-0.215,31.414l-0.354,31.413c-0.114,10.472-0.246,20.942-0.43,31.413l-0.503,31.411l-0.006,0.355
			l-0.319,0.138l-22.854,9.88c-7.598,3.341-15.223,6.618-22.797,10.011c-7.574,3.395-15.175,6.727-22.726,10.173l-22.68,10.278
			l-0.99,0.449l-0.01-1.101c-0.044-5.235-0.125-10.472-0.125-15.707l-0.05-15.707c-0.035-5.235,0.025-10.471,0.034-15.707
			l0.062-15.707l0.086-15.706l0.151-15.707c0.042-5.236,0.102-10.472,0.19-15.707L622.937,785.221z"/>
	</g>
	<g>
		<polygon fill="#FFED00" points="803.742,705.476 715.19,745.097 714.16,870.753 802.196,831.698 		"/>
		<path d="M803.638,705.635l-10.837,5.079l-10.996,5.114l-22.042,10.121l-22.093,10.005l-11.05,4.996
			c-3.678,1.678-7.379,3.304-11.072,4.944l0.517-0.791l-0.179,15.707l-0.286,15.706l-0.291,15.705
			c-0.097,5.235-0.207,10.471-0.258,15.706l-0.193,15.707l-0.099,15.707l-0.054,15.707l0.003,15.709l-0.771-0.506l21.92-9.967
			l21.95-9.895l21.974-9.844c7.327-3.274,14.64-6.583,21.988-9.811l-0.625,0.949l0.431-31.556l0.267-15.776l0.297-15.776
			l0.311-15.776l0.361-15.776C803.025,726.561,803.36,716.098,803.638,705.635z M803.842,705.477
			c0.021,10.521,0.101,21.042,0.06,31.562l-0.025,15.779l-0.076,15.779l-0.09,15.779l-0.119,15.779l-0.343,31.556l-0.007,0.672
			l-0.618,0.277c-7.324,3.282-14.685,6.482-22.029,9.717l-22.045,9.684l-22.067,9.633l-22.099,9.561l-0.785,0.34l0.015-0.846
			l0.261-15.706l0.204-15.706l0.159-15.707l0.063-15.707c0.035-5.236,0.011-10.472,0-15.708l-0.034-15.709l-0.028-15.708
			l0.079-15.707l0.002-0.56l0.515-0.231c3.686-1.661,7.364-3.337,11.065-4.961l11.089-4.909l22.183-9.806l22.234-9.689l11.142-4.791
			l11.296-4.818V705.477z"/>
	</g>
	<g>
		<polygon fill="#F9B233" points="894.866,664.156 803.742,705.476 802.196,831.698 890.232,790.944 		"/>
		<path d="M894.758,664.318l-11.151,5.291l-11.317,5.327l-22.682,10.549l-22.736,10.427l-11.371,5.209l-11.399,5.146l0.51-0.78
			l-0.255,15.777l-0.351,15.775c-0.215,10.518-0.521,21.034-0.666,31.553l-0.259,15.776l-0.152,15.778
			c-0.123,10.519-0.121,21.039-0.175,31.559l-0.79-0.513l43.866-20.703l21.972-10.268c7.326-3.419,14.642-6.861,21.99-10.231
			l-0.609,0.916l1.203-31.695l0.655-15.846l0.682-15.846c0.437-10.563,0.944-21.125,1.442-31.687
			C893.635,685.326,894.227,674.823,894.758,664.318z M894.966,664.16c-0.238,10.57-0.416,21.145-0.715,31.713
			c-0.274,10.57-0.538,21.14-0.874,31.707l-0.477,15.853l-0.503,15.852l-1.114,31.698l-0.023,0.642l-0.586,0.274
			c-7.324,3.422-14.682,6.772-22.028,10.146L846.6,812.153l-44.169,20.05l-0.809,0.367l0.018-0.879
			c0.204-10.518,0.463-21.035,0.599-31.553l0.233-15.777l0.128-15.779c0.111-10.519,0.064-21.039,0.106-31.559l0.036-15.78
			l0.132-15.778l0.005-0.55l0.505-0.23l11.382-5.185l11.41-5.12L849,684.146l22.881-10.11l11.464-5.003l11.625-5.03L894.966,664.16z
			"/>
	</g>
	<g>
		<polygon fill="#FFFEF3" points="623.035,910.94 623.55,1038.295 711.587,998.106 714.16,870.753 		"/>
		<path d="M623.137,911.006l0.33,15.853l0.257,15.918l0.217,15.919l0.147,15.919l0.127,15.919c0.038,5.307,0.102,10.613,0.09,15.92
			l0.014,15.919l-0.074,15.92l-0.982-0.629l22.111-9.822c7.375-3.267,14.707-6.623,22.063-9.931
			c7.354-3.311,14.66-6.726,21.992-10.084l21.937-10.207l-0.313,0.477l0.394-31.844c0.115-10.614,0.28-21.229,0.467-31.842
			l0.548-31.84l0.688-31.838l1.421,0.947c-7.591,3.354-15.211,6.644-22.826,9.943l-22.849,9.895l-22.887,9.807L623.137,911.006z
			 M622.936,910.876l22.69-10.413l22.676-10.287l22.714-10.199c7.572-3.398,15.14-6.807,22.735-10.15l1.452-0.639l-0.03,1.586
			l-0.599,31.839l-0.739,31.837c-0.242,10.612-0.506,21.224-0.819,31.835l-0.893,31.833l-0.01,0.341l-0.304,0.136l-22.083,9.887
			c-7.34,3.341-14.707,6.623-22.025,10.011c-7.317,3.391-14.657,6.731-21.956,10.163l-21.907,10.272l-0.969,0.454l-0.014-1.083
			l-0.203-15.919l-0.114-15.919c-0.056-5.307-0.034-10.613-0.04-15.92l-0.001-15.919l0.019-15.92l0.089-15.92l0.128-15.92
			L622.936,910.876z"/>
	</g>
	<g>
		<polygon fill="#FFFEF3" points="802.196,831.698 714.16,870.753 711.587,998.106 799.623,957.92 		"/>
		<path d="M802.091,831.857l-10.773,5.007l-10.933,5.043l-21.914,9.978l-21.964,9.865c-7.329,3.271-14.633,6.599-21.991,9.805
			l0.522-0.784l-0.373,15.918l-0.475,15.917l-0.485,15.915c-0.159,5.306-0.34,10.61-0.454,15.917l-0.388,15.918l-0.293,15.92
			l-0.245,15.92l-0.188,15.922l-0.779-0.512l21.917-10.248l21.949-10.177l21.973-10.126c7.327-3.37,14.641-6.77,21.989-10.092
			l-0.615,0.936l0.688-31.555l0.397-15.776l0.424-15.775l0.439-15.775l0.489-15.774
			C801.309,852.779,801.729,842.319,802.091,831.857z M802.296,831.7c-0.065,10.521-0.071,21.044-0.198,31.564l-0.154,15.781
			l-0.204,15.78l-0.22,15.779l-0.246,15.779l-0.599,31.557l-0.013,0.657l-0.603,0.278c-7.324,3.376-14.683,6.674-22.029,10.002
			l-22.046,9.967l-22.068,9.916l-22.101,9.846l-0.804,0.358l0.024-0.87l0.456-15.917l0.397-15.918l0.351-15.918l0.256-15.921
			c0.101-5.307,0.134-10.614,0.189-15.922l0.157-15.922l0.169-15.923l0.271-15.92l0.01-0.554l0.513-0.231
			c7.314-3.303,14.684-6.484,22.027-9.722l22.054-9.662l22.104-9.55l11.075-4.721l11.231-4.749L802.296,831.7z"/>
	</g>
	<g>
		<polygon fill="#E30613" points="890.232,790.944 802.196,831.698 799.623,957.92 885.085,919.431 		"/>
		<path d="M890.123,791.108l-10.764,5.214l-10.931,5.255l-21.909,10.402l-21.963,10.288l-10.984,5.138
			c-3.656,1.725-7.336,3.398-11.009,5.087l0.507-0.776l-0.372,15.777l-0.479,15.774l-0.485,15.774
			c-0.162,5.258-0.335,10.516-0.449,15.774l-0.388,15.776l-0.29,15.778l-0.244,15.779l-0.188,15.78l-0.778-0.515l21.276-9.819
			l21.308-9.751l42.671-19.377l-0.621,0.92l1.332-32.12c0.424-10.707,0.977-21.409,1.459-32.114l0.759-16.057l0.814-16.054
			C888.91,812.396,889.543,801.753,890.123,791.108z M890.332,790.948c-0.275,10.714-0.496,21.429-0.835,32.14l-0.473,16.067
			l-0.528,16.065c-0.376,10.71-0.681,21.422-1.115,32.129l-1.241,32.123l-0.025,0.654l-0.596,0.266l-42.791,19.112l-21.424,9.493
			l-21.454,9.425l-0.804,0.354l0.025-0.868l0.455-15.774l0.398-15.776l0.354-15.777l0.257-15.778
			c0.099-5.26,0.141-10.521,0.193-15.78l0.158-15.781l0.164-15.781l0.271-15.778l0.009-0.544l0.498-0.232
			c3.663-1.708,7.32-3.43,11.001-5.102l11.024-5.051l22.056-10.089l22.107-9.975l11.079-4.934l11.239-4.966L890.332,790.948z"/>
	</g>
	<g>
		<polygon fill="#FFED00" points="300.75,586.611 408.35,610.95 412.469,731.513 308.987,704.344 		"/>
		<path d="M300.643,586.487l13.631,2.842l13.49,2.864l26.954,5.847l26.923,5.98c8.981,1.965,17.932,4.066,26.895,6.111l0.632,0.145
			l0.022,0.646c0.17,5.023,0.278,10.049,0.402,15.074l0.364,15.075l0.361,15.075l0.439,15.073
			c0.161,5.023,0.278,10.049,0.478,15.071l0.561,15.068c0.361,10.047,0.835,20.089,1.244,30.134l0.031,0.761l-0.746-0.189
			l-25.923-6.592l-12.962-3.297l-12.95-3.34l-25.895-6.7c-8.637-2.213-17.248-4.522-25.87-6.789l-0.721-0.189l-0.051-0.741
			l-2.006-29.437l-1.871-29.446l-1.782-29.453L300.643,586.487z M300.861,586.741l2.463,29.268l2.337,29.413l2.247,29.42
			l2.113,29.43l-0.771-0.931c8.624,2.261,17.259,4.48,25.869,6.795l25.847,6.885l12.92,3.452l12.909,3.496l25.817,6.992
			l-0.715,0.571c-0.277-10.049-0.49-20.101-0.814-30.148l-0.47-15.071c-0.146-5.024-0.371-10.046-0.553-15.069l-0.59-15.067
			l-0.669-15.065l-0.665-15.065c-0.22-5.021-0.455-10.043-0.628-15.066l0.654,0.791c-8.971-2.012-17.953-3.966-26.906-6.059
			l-26.876-6.189l-26.846-6.323l-13.409-3.221L300.861,586.741z"/>
	</g>
	<g>
		<polygon fill="#FFED00" points="513.376,636.422 408.35,610.95 412.469,731.513 515.95,758.116 		"/>
		<path d="M513.276,636.502l-13.106-2.945l-13.171-3.008l-26.314-6.129l-26.281-6.267c-4.378-1.054-8.766-2.067-13.135-3.154
			l-13.119-3.225l1.048-0.854c0.345,10.047,0.522,20.1,0.786,30.149l0.361,15.075c0.106,5.026,0.275,10.05,0.423,15.073
			l0.458,15.072l0.561,15.069c0.349,10.047,0.815,20.089,1.23,30.134l-0.411-0.512l51.835,12.934l25.894,6.559l12.945,3.29
			l12.93,3.343l-1.3,1.03l-0.602-30.424l-0.45-30.428l-0.363-30.43C513.367,656.739,513.353,646.62,513.276,636.502z
			 M513.476,636.42c0.353,10.138,0.767,20.275,1.069,30.414l0.924,30.418l0.837,30.42l0.686,30.422l0.031,1.371l-1.332-0.34
			l-12.939-3.308l-12.926-3.361l-25.847-6.743l-51.646-13.67l-0.4-0.105l-0.011-0.406c-0.271-10.049-0.491-20.101-0.829-30.147
			l-0.469-15.071l-0.572-15.068c-0.195-5.023-0.37-10.047-0.606-15.067l-0.669-15.065c-0.423-10.044-0.932-20.085-1.273-30.132
			l-0.038-1.113l1.086,0.26l13.138,3.143c4.383,1.036,8.747,2.146,13.121,3.214l26.232,6.47l26.198,6.606l13.086,3.36l13.148,3.425
			L513.476,636.42z"/>
	</g>
	<g>
		<polygon fill="#95C11F" points="622.521,659.629 513.376,636.422 515.95,758.116 623.035,785.285 		"/>
		<path d="M622.42,659.711l-13.611-2.66l-13.681-2.724l-27.337-5.562l-27.308-5.699c-4.55-0.959-9.107-1.879-13.649-2.875
			l-13.634-2.942l1.021-0.845c0.216,10.141,0.263,20.285,0.401,30.429l0.17,15.215c0.044,5.071,0.146,10.143,0.23,15.214
			l0.262,15.213l0.365,15.211l0.393,15.21l0.443,15.209l-0.404-0.508l53.638,13.209l26.795,6.699
			c8.936,2.218,17.858,4.485,26.776,6.77l-1.298,1.015l-0.087-31.414l0.064-31.415l0.151-31.415
			C622.166,680.601,622.324,670.156,622.42,659.711z M622.62,659.629c0.182,10.471,0.427,20.941,0.556,31.412l0.41,31.413
			l0.321,31.413l0.17,31.414l0.008,1.342l-1.307-0.328c-8.929-2.243-17.854-4.503-26.765-6.813l-26.748-6.886l-53.447-13.96
			l-0.398-0.104l-0.006-0.404l-0.2-15.214l-0.251-15.213l-0.278-15.213l-0.382-15.211c-0.129-5.069-0.242-10.141-0.413-15.21
			l-0.474-15.208c-0.29-10.14-0.673-20.277-0.886-30.419l-0.022-1.063l1.044,0.219l13.652,2.858
			c4.554,0.938,9.091,1.952,13.638,2.928l27.264,5.904l27.235,6.042l13.605,3.079l13.673,3.143L622.62,659.629z"/>
	</g>
	<g>
		<polygon fill="#E30613" points="308.987,704.344 318.255,820.377 418.646,850.942 412.469,731.513 		"/>
		<path d="M309.101,704.479l1.393,14.341l1.345,14.489c0.848,9.663,1.772,19.32,2.557,28.989l2.432,28.999l1.128,14.507
			l1.094,14.509l-0.562-0.697l25.021,7.896l12.511,3.947l12.533,3.872l12.539,3.854l12.561,3.781
			c8.367,2.542,16.764,4.988,25.149,7.473l-0.679,0.53l-1.807-29.844l-1.7-29.85l-1.653-29.852l-1.516-29.859l0.764,0.938
			c-8.62-2.278-17.245-4.535-25.85-6.874l-25.826-6.96l-25.801-7.057L309.101,704.479z M308.879,704.214l26.104,6.445l25.94,6.528
			l25.914,6.624c8.644,2.189,17.265,4.461,25.892,6.71l0.724,0.189l0.04,0.749l1.573,29.855l1.436,29.863l1.389,29.865l1.282,29.871
			l0.031,0.752l-0.71-0.222c-8.347-2.609-16.682-5.258-25.046-7.811l-12.537-3.859l-12.56-3.788l-12.564-3.769l-12.587-3.694
			l-25.176-7.387l-0.516-0.15l-0.046-0.547l-1.224-14.499l-1.188-14.502l-2.202-29.018c-0.761-9.67-1.38-19.352-2.077-29.027
			l-0.972-14.519L308.879,704.214z"/>
	</g>
	<g>
		<polygon fill="#FFFEF3" points="515.95,758.116 412.469,731.513 418.646,850.942 519.555,880.942 		"/>
		<path d="M515.852,758.195l-12.918-3.088l-12.98-3.149l-25.932-6.413l-25.896-6.551l-12.944-3.292l-12.925-3.366l1.061-0.867
			c0.516,9.952,0.874,19.913,1.307,29.87c0.423,9.957,0.792,19.917,1.295,29.87l0.712,14.932l0.815,14.927l0.845,14.925
			l0.896,14.922l-0.386-0.489l50.563,14.633l25.254,7.41c8.422,2.456,16.833,4.95,25.234,7.474l-1.34,1.031l-0.859-30.707
			l-0.711-30.713l-0.62-30.715C516.107,778.626,516.012,768.409,515.852,758.195z M516.05,758.113
			c0.44,10.231,0.945,20.461,1.331,30.694l1.183,30.698l1.091,30.7l0.943,30.706l0.045,1.438l-1.386-0.407
			c-8.416-2.477-16.823-4.982-25.219-7.526l-25.2-7.59l-50.346-15.366l-0.369-0.113l-0.017-0.377l-0.648-14.936l-0.7-14.933
			l-0.729-14.931l-0.833-14.926c-0.527-9.952-1.188-19.896-1.794-29.845c-0.597-9.948-1.269-19.893-1.782-29.845l-0.06-1.151
			l1.12,0.284l12.945,3.285l12.927,3.358l25.845,6.751l25.809,6.889l12.891,3.501l12.95,3.565L516.05,758.113z"/>
	</g>
	<g>
		<polygon fill="#95C11F" points="623.035,785.285 515.95,758.116 519.555,880.942 623.035,910.94 		"/>
		<path d="M622.934,785.364l-13.365-3.156l-13.43-3.221l-26.832-6.555l-26.797-6.69c-4.464-1.125-8.938-2.208-13.393-3.367
			l-13.375-3.438l1.055-0.846c0.303,10.235,0.436,20.476,0.657,30.713l0.298,15.358c0.085,5.119,0.232,10.237,0.359,15.355
			l0.394,15.355L519,850.226c0.307,10.235,0.729,20.467,1.102,30.7l-0.395-0.509l51.846,14.636l25.896,7.41
			c8.637,2.454,17.261,4.954,25.877,7.476l-1.333,1.002l0.042-31.414l0.191-31.414l0.281-31.413
			C622.592,806.254,622.795,795.809,622.934,785.364z M623.135,785.285c0.14,10.472,0.344,20.942,0.429,31.414l0.281,31.413
			l0.191,31.414l0.042,31.414l0.002,1.386l-1.336-0.384c-8.629-2.478-17.252-4.979-25.863-7.523l-25.844-7.589l-51.635-15.362
			l-0.386-0.114l-0.009-0.396c-0.229-10.237-0.406-20.477-0.701-30.712l-0.405-15.354l-0.507-15.352
			c-0.175-5.117-0.327-10.235-0.542-15.351l-0.604-15.349c-0.379-10.233-0.847-20.464-1.145-30.699l-0.033-1.119l1.088,0.272
			l13.396,3.354c4.469,1.105,8.918,2.286,13.379,3.425l26.745,6.895l26.711,7.03l13.341,3.571l13.403,3.638L623.135,785.285z"/>
	</g>
	<g>
		<polygon fill="#FFED00" points="318.255,820.377 327.007,939.24 423.28,971.504 418.646,850.942 		"/>
		<path d="M318.368,820.519l1.334,14.69l1.282,14.844c0.813,9.899,1.685,19.794,2.427,29.698l2.305,29.707
			c0.68,9.909,1.437,19.813,2.052,29.726l-0.518-0.667l23.985,8.313l11.997,4.142l12.018,4.083
			c4.008,1.357,8.007,2.736,12.027,4.055l12.047,3.996c8.023,2.684,16.082,5.268,24.123,7.899l-0.693,0.521l-1.424-30.131
			l-1.314-30.134l-1.268-30.137l-1.123-30.142l0.724,0.938l-12.544-3.838l-12.527-3.891l-25.048-7.805l-25.019-7.901
			L318.368,820.519z M318.147,820.242l25.348,7.309l25.177,7.382l25.147,7.478l12.57,3.752l12.555,3.803l0.694,0.21l0.029,0.729
			l1.194,30.139l1.049,30.145l1.003,30.146l0.893,30.15l0.023,0.767l-0.718-0.246c-8.003-2.746-15.991-5.539-24.013-8.232
			l-12.021-4.07c-4.003-1.369-8.025-2.68-12.041-4.011l-12.051-3.983l-12.071-3.924l-24.15-7.819l-0.476-0.153l-0.043-0.515
			c-0.843-9.896-1.545-19.804-2.324-29.705l-2.071-29.725c-0.717-9.906-1.304-19.822-1.949-29.733l-0.906-14.872L318.147,820.242z"
			/>
	</g>
	<g>
		<polygon fill="#36A9E1" points="519.555,880.942 418.646,850.942 423.28,971.504 522.643,1004.9 		"/>
		<path d="M519.455,881.019l-12.606-3.516l-12.665-3.577l-25.297-7.264l-25.256-7.401l-12.626-3.709l-12.602-3.79l1.098-0.852
			c0.173,5.023,0.37,10.047,0.498,15.072l0.431,15.076c0.301,10.05,0.524,20.104,0.899,30.15l0.519,15.072l0.616,15.069
			l0.648,15.067l0.703,15.065l-0.364-0.487l49.803,16.334l24.871,8.261c8.294,2.742,16.579,5.51,24.851,8.318l-1.378,1.018
			l-0.729-30.991l-0.584-30.994c-0.21-10.331-0.335-20.664-0.49-30.996C519.621,901.638,519.572,891.327,519.455,881.019z
			 M519.654,880.939c0.397,10.327,0.863,20.651,1.205,30.979c0.359,10.327,0.749,20.653,1.054,30.982l0.96,30.984l0.814,30.988
			l0.039,1.489l-1.417-0.472c-8.289-2.758-16.563-5.557-24.83-8.38l-24.812-8.438l-49.559-17.063l-0.354-0.122l-0.011-0.365
			l-0.455-15.075l-0.51-15.072l-0.542-15.072l-0.641-15.067c-0.396-10.047-0.946-20.087-1.417-30.131l-0.729-15.064
			c-0.258-5.021-0.447-10.044-0.66-15.066l-0.05-1.19l1.148,0.338l12.625,3.71l12.602,3.792l25.197,7.598l25.157,7.736l12.562,3.923
			l12.619,3.986L519.654,880.939z"/>
	</g>
	<g>
		<polygon fill="#36A9E1" points="623.035,910.94 519.555,880.942 522.643,1004.9 623.55,1038.295 		"/>
		<path d="M622.935,911.017l-12.925-3.515l-12.985-3.576l-25.938-7.264l-25.898-7.4l-12.947-3.709l-12.924-3.789l1.093-0.843
			c0.109,5.166,0.241,10.33,0.305,15.497l0.236,15.498c0.171,10.332,0.267,20.666,0.514,30.996l0.324,15.496l0.426,15.494
			l0.458,15.493l0.511,15.491l-0.37-0.499l50.572,16.337l25.256,8.261c8.422,2.744,16.838,5.508,25.238,8.316l-1.375,0.997
			l-0.086-31.839l0.059-31.839l0.056-15.92l0.098-15.92C622.671,932.193,622.837,921.604,622.935,911.017z M623.135,910.94
			c0.184,10.612,0.437,21.224,0.563,31.837l0.227,15.918l0.185,15.919l0.316,31.838l0.171,31.839l0.008,1.449l-1.383-0.452
			c-8.417-2.757-16.82-5.559-25.216-8.381l-25.197-8.437l-50.335-17.058l-0.363-0.123l-0.007-0.376l-0.261-15.498l-0.314-15.497
			l-0.347-15.495l-0.447-15.493c-0.269-10.33-0.687-20.655-1.03-30.983l-0.535-15.491c-0.194-5.163-0.319-10.328-0.468-15.492
			l-0.034-1.165l1.127,0.322l12.946,3.71l12.923,3.791l25.842,7.599l25.802,7.735l12.885,3.923l12.943,3.987L623.135,910.94z"/>
	</g>
	<g>
		<polygon fill="#E30613" points="300.75,586.611 396.51,553.783 502.05,575.291 408.35,610.95 		"/>
		<path d="M300.404,586.631l12.208-4.438l11.911-4.276l23.86-8.438l23.905-8.308c3.984-1.384,7.965-2.779,11.964-4.121l11.984-4.063
			l0.219-0.074l0.222,0.046c8.791,1.812,17.556,3.751,26.335,5.623l13.162,2.835c4.385,0.959,8.784,1.847,13.176,2.771l13.183,2.741
			l13.201,2.645c8.796,1.786,17.614,3.465,26.423,5.188l1.818,0.355l-1.733,0.679l-23.34,9.139l-23.372,9.054l-23.391,9.006
			c-7.79,3.019-15.607,5.968-23.42,8.928l-0.295,0.111l-0.305-0.069l-26.89-6.131l-26.857-6.271l-26.838-6.357
			c-8.947-2.115-17.871-4.334-26.808-6.496L300.404,586.631z M301.139,586.591c8.875,1.868,17.762,3.682,26.626,5.597L354.727,598
			l26.941,5.899l26.911,6.038l-0.599,0.042c7.803-2.983,15.604-5.978,23.43-8.901l23.459-8.824l23.479-8.776l23.51-8.69l0.084,1.034
			c-8.78-1.862-17.552-3.769-26.346-5.567l-13.184-2.732l-13.203-2.636c-4.403-0.869-8.799-1.773-13.209-2.606l-13.223-2.542
			c-8.812-1.713-17.637-3.358-26.436-5.13l0.44-0.029l-11.956,4.145c-3.98,1.394-7.979,2.735-11.976,4.087l-23.975,8.106
			l-24.019,7.976l-12.029,3.931L301.139,586.591z"/>
	</g>
	<g>
		<polygon fill="#36A9E1" points="487.634,522.086 396.51,553.783 502.05,575.291 590.086,541.33 		"/>
		<path d="M487.642,522.189l-11.29,4.171l-11.33,4.134l-22.701,8.156l-22.746,8.024c-3.792,1.333-7.576,2.69-11.383,3.983
			l-11.404,3.921l-0.108-1.623c8.792,1.806,17.555,3.757,26.333,5.63l13.161,2.841l13.177,2.767
			c4.396,0.907,8.782,1.854,13.185,2.728l13.201,2.644c8.8,1.772,17.619,3.442,26.43,5.159l-0.323,0.027l21.929-8.7l21.959-8.618
			l21.976-8.579c7.317-2.879,14.67-5.666,22.008-8.493l0.182,1.986l-25.604-4.864l-25.578-4.996l-25.562-5.085L487.642,522.189z
			 M487.626,521.983l25.716,4.406l25.665,4.537l25.647,4.626l25.623,4.758l3.596,0.668l-3.414,1.318
			c-7.335,2.833-14.654,5.707-22.01,8.488l-22.043,8.401l-22.059,8.362l-22.09,8.281l-0.163,0.061l-0.16-0.034
			c-8.78-1.868-17.55-3.783-26.341-5.595l-13.184-2.734c-4.393-0.918-8.801-1.764-13.2-2.649l-13.208-2.61l-13.224-2.536
			c-8.812-1.711-17.64-3.345-26.437-5.124l-2.999-0.606l2.89-1.017l11.377-4.002c3.787-1.348,7.597-2.632,11.397-3.941l22.815-7.824
			l22.862-7.693l11.45-3.79L487.626,521.983z"/>
	</g>
	<g>
		<polygon fill="#FFFEF3" points="577.729,490.954 487.634,522.086 590.086,541.33 680.182,505.105 		"/>
		<path d="M577.74,491.057l-11.165,4.101l-11.202,4.063l-22.444,8.015l-22.489,7.883c-3.751,1.306-7.49,2.646-11.254,3.916
			l-11.275,3.851l-0.12-1.629c8.537,1.606,17.044,3.373,25.567,5.053l12.778,2.555c4.257,0.865,8.526,1.667,12.79,2.493
			l12.796,2.461l12.815,2.361c8.538,1.598,17.098,3.085,25.648,4.618l-0.302,0.03l22.434-9.28l22.469-9.194l22.487-9.147
			c7.487-3.069,15.012-6.048,22.521-9.062l0.245,1.989l-25.605-3.592l-25.588-3.724l-25.575-3.813L577.74,491.057z M577.72,490.852
			l25.693,3.129l25.651,3.262l25.639,3.352l25.62,3.484l3.874,0.527l-3.629,1.462c-7.506,3.024-14.998,6.083-22.526,9.051
			l-22.561,8.965l-22.579,8.919l-22.613,8.832l-0.152,0.06l-0.151-0.03c-8.524-1.675-17.04-3.395-25.576-5.004l-12.799-2.45
			l-12.816-2.35c-4.273-0.777-8.542-1.58-12.823-2.318l-12.834-2.256c-8.553-1.527-17.121-2.968-25.659-4.569l-3.112-0.584
			l2.992-1.046l11.248-3.932c3.745-1.325,7.514-2.58,11.271-3.868l22.559-7.683l22.604-7.551l11.321-3.72L577.72,490.852z"/>
	</g>
	<g>
		<polygon fill="#F9B233" points="408.35,610.95 513.376,636.422 610.164,596.234 502.05,575.291 		"/>
		<path d="M408.706,610.928l12.853,2.872l13.173,3.003c8.77,2.048,17.556,4.031,26.313,6.133l26.283,6.259
			c4.385,1.026,8.749,2.135,13.124,3.201l13.116,3.233l-0.505,0.039l24.305-9.787l12.151-4.895l12.121-4.971
			c4.038-1.661,8.086-3.3,12.107-5.001l12.082-5.063c8.059-3.365,16.079-6.824,24.119-10.235l0.108,1.067l-27.076-4.991
			l-27.056-5.094l-27.049-5.132l-27.021-5.271l0.559-0.048c-7.813,2.96-15.621,5.932-23.457,8.833l-23.486,8.754l-23.521,8.661
			L408.706,610.928z M408.03,610.97l23.57-9.393l23.328-9.169l23.363-9.076c7.781-3.043,15.59-6.014,23.394-8.997l0.271-0.104
			l0.287,0.055l27.036,5.2l27.008,5.339l27.001,5.378l26.981,5.48l1.824,0.37l-1.716,0.697c-8.092,3.287-16.203,6.526-24.275,9.858
			l-12.114,4.984c-4.044,1.647-8.063,3.358-12.089,5.046l-12.077,5.076l-12.045,5.152l-24.089,10.307l-0.24,0.103l-0.266-0.063
			l-13.141-3.135c-4.377-1.057-8.765-2.07-13.132-3.166l-26.23-6.478c-8.747-2.144-17.466-4.406-26.199-6.604l-13.085-3.364
			L408.03,610.97z"/>
	</g>
	<g>
		<polygon fill="#F9B233" points="590.086,541.33 502.05,575.291 610.164,596.234 700.26,560.009 		"/>
		<path d="M590.097,541.434l-10.899,4.441l-10.94,4.413l-21.92,8.721l-21.973,8.584l-10.986,4.292l-11.019,4.208l-0.146-1.646
			c4.5,0.898,9.009,1.753,13.501,2.688l13.485,2.765c8.994,1.827,17.973,3.735,26.979,5.498l13.502,2.678l13.521,2.589l13.526,2.555
			l13.538,2.495l-0.298,0.028l22.435-9.279l22.468-9.198l22.488-9.145l11.244-4.572l11.269-4.511l0.215,1.998l-27.536-4.711
			l-27.512-4.857c-9.174-1.603-18.332-3.292-27.496-4.947C608.383,544.883,599.245,543.126,590.097,541.434z M590.103,541.231
			c9.204,1.419,18.42,2.773,27.615,4.246c9.198,1.458,18.401,2.882,27.591,4.392l27.575,4.482l27.551,4.628l3.646,0.612
			l-3.431,1.386l-11.255,4.545l-11.28,4.485l-22.56,8.968l-22.58,8.915l-22.613,8.834l-0.15,0.058l-0.147-0.03l-13.49-2.741
			l-13.502-2.681l-13.509-2.646l-13.526-2.558c-9.013-1.728-18.054-3.31-27.079-4.974l-13.543-2.471
			c-4.517-0.81-9.018-1.701-13.527-2.548l-2.949-0.553l2.803-1.092l10.99-4.283l11.022-4.198l22.046-8.396l22.098-8.26l11.069-4.078
			l11.11-4.048L590.103,541.231z"/>
	</g>
	<g>
		<polygon fill="#36A9E1" points="680.182,505.105 592.66,540.764 700.26,560.009 794.475,522.651 		"/>
		<path d="M680.194,505.208l-10.833,4.649l-10.873,4.623l-21.788,9.141l-21.841,9.01l-10.922,4.504l-10.951,4.43l-0.174-1.652
			l13.439,2.461l13.425,2.55l26.851,5.084l13.439,2.465c4.478,0.835,8.964,1.618,13.45,2.403l13.458,2.361l13.471,2.29l-0.266,0.027
			l23.461-9.573l23.491-9.495l23.518-9.431l11.759-4.715l11.78-4.663l0.227,2.008l-28.566-4.429l-28.545-4.57
			c-9.518-1.51-19.022-3.1-28.53-4.666C699.171,508.477,689.688,506.809,680.194,505.208z M680.197,505.006
			c9.545,1.322,19.102,2.577,28.639,3.956c9.541,1.358,19.085,2.693,28.616,4.107l28.602,4.203l28.579,4.344l3.82,0.581
			l-3.593,1.427l-11.774,4.677l-11.795,4.625l-23.589,9.248l-23.616,9.184l-23.646,9.105l-0.135,0.052l-0.132-0.025l-13.43-2.521
			l-13.441-2.449c-4.48-0.819-8.961-1.64-13.45-2.408l-13.46-2.347l-26.949-4.538l-13.476-2.262l-13.46-2.35l-2.947-0.514
			l2.773-1.138l10.93-4.484l10.958-4.412l21.92-8.819l21.972-8.689l11.008-4.292l11.049-4.265L680.197,505.006z"/>
	</g>
	<g>
		<polygon fill="#FFFEF3" points="513.376,636.422 622.521,659.629 717.25,618.309 610.164,596.234 		"/>
		<path d="M513.73,636.389l13.361,2.594l13.682,2.718c9.111,1.859,18.238,3.644,27.336,5.566l27.311,5.688l13.637,2.932
			l13.629,2.965l-0.482,0.049l23.792-10.078l11.893-5.048l11.863-5.113c3.954-1.707,7.914-3.398,11.85-5.146l11.824-5.203
			c7.889-3.456,15.735-7.009,23.604-10.51l0.109,1.046l-26.821-5.275l-26.802-5.375l-26.792-5.417l-26.767-5.541l0.602-0.057
			c-8.076,3.326-16.13,6.702-24.227,9.977l-24.266,9.883l-24.302,9.793L513.73,636.389z M513.058,636.451l24.324-10.537
			l24.092-10.301l24.129-10.21c8.034-3.425,16.111-6.746,24.167-10.118l0.29-0.121l0.312,0.064l26.776,5.497l26.751,5.62
			l26.741,5.662l26.722,5.762l1.698,0.366l-1.589,0.68c-7.92,3.386-15.861,6.72-23.761,10.15l-11.857,5.127
			c-3.958,1.696-7.893,3.448-11.833,5.185l-11.818,5.217l-11.79,5.282l-23.573,10.582l-0.227,0.102l-0.256-0.053l-13.657-2.837
			l-13.649-2.87l-27.262-5.915c-9.094-1.944-18.156-4.029-27.236-6.037l-13.604-3.083L513.058,636.451z"/>
	</g>
	<g>
		<polygon fill="#95C11F" points="700.26,560.009 610.164,596.234 717.25,618.309 806.315,578.688 		"/>
		<path d="M700.271,560.113l-11.15,4.729l-11.194,4.696l-22.433,9.284l-22.484,9.153c-3.751,1.517-7.487,3.07-11.25,4.558
			l-11.278,4.489l-0.145-1.618c8.924,1.838,17.814,3.839,26.722,5.758l13.354,2.911c4.448,0.984,8.91,1.904,13.367,2.849
			l13.375,2.813l13.395,2.715c8.925,1.833,17.875,3.547,26.813,5.316l-0.336,0.036l22.171-10.119l22.207-10.037l22.228-9.993
			c7.401-3.349,14.836-6.621,22.263-9.914l0.241,1.972l-26.505-4.719l-26.48-4.857l-26.466-4.944
			C717.871,563.547,709.075,561.802,700.271,560.113z M700.277,559.91c8.861,1.422,17.732,2.788,26.586,4.256l26.563,4.395
			l26.547,4.482l26.522,4.621l3.352,0.584l-3.109,1.388c-7.418,3.311-14.827,6.642-22.271,9.896l-22.305,9.817l-22.325,9.774
			l-22.361,9.69l-0.168,0.073l-0.17-0.036c-8.909-1.91-17.807-3.875-26.729-5.721l-13.377-2.804l-13.396-2.705
			c-4.467-0.896-8.929-1.814-13.404-2.67l-13.417-2.607c-8.94-1.76-17.897-3.438-26.82-5.279l-2.739-0.565l2.594-1.054l11.246-4.567
			c3.745-1.532,7.517-2.997,11.273-4.499l22.563-8.959l22.615-8.829l11.329-4.36l11.374-4.327L700.277,559.91z"/>
	</g>
	<g>
		<polygon fill="#FFFEF3" points="794.475,522.651 700.26,560.009 806.315,578.688 899.5,536.802 		"/>
		<path d="M794.487,522.754l-11.667,4.877l-11.709,4.84l-23.464,9.566l-23.514,9.439c-7.827,3.175-15.708,6.212-23.564,9.312
			l-0.164-1.605c4.419,0.779,8.826,1.623,13.237,2.445l13.231,2.479l13.231,2.483l13.243,2.412l13.249,2.38l13.265,2.291
			c8.839,1.552,17.699,2.98,26.549,4.471l-0.322,0.04l23.198-10.69l23.236-10.604l23.255-10.562
			c7.742-3.542,15.533-6.975,23.298-10.468l0.285,1.967l-26.248-3.598l-26.231-3.721l-26.219-3.813L794.487,522.754z
			 M794.462,522.549l26.337,3.134l26.294,3.263l26.28,3.354l26.265,3.477l3.604,0.477l-3.318,1.49
			c-7.767,3.488-15.506,7.036-23.295,10.475l-23.336,10.38l-23.356,10.339l-23.395,10.251l-0.16,0.07l-0.162-0.03
			c-8.826-1.623-17.642-3.307-26.479-4.869l-13.249-2.378l-13.265-2.29l-13.271-2.258l-13.283-2.187l-13.282-2.191
			c-4.427-0.734-8.857-1.447-13.276-2.225l-2.908-0.511l2.745-1.094c7.846-3.126,15.666-6.315,23.542-9.367l23.594-9.24
			l23.644-9.112l11.844-4.5L794.462,522.549z"/>
	</g>
	<g>
		<g>
			<path fill="#FFFEF3" d="M786.217,668.144c-3.809,1.218-7.109,3.666-9.331,7.783c-7.214,13.363-7.265,30.165-5.933,44.855
				c1.408,15.534,5.979,33.732,19.366,43.282c27.76,19.801,62.267,6.1,60.594-29.846c-0.991-21.291-12.632-43.494-28.97-57.061
				C812.81,669.569,798.192,664.314,786.217,668.144z"/>
			<path d="M786.249,668.238c0,0-0.271,0.101-0.8,0.297c-0.538,0.183-1.294,0.521-2.244,1.041c-0.944,0.531-2.057,1.291-3.189,2.382
				c-1.116,1.104-2.209,2.569-3.131,4.362c-1.874,3.624-3.536,8.293-4.571,13.849c-1.055,5.548-1.426,11.935-1.219,18.875
				c0.109,3.472,0.334,7.087,0.673,10.823c0.351,3.74,0.78,7.569,1.524,11.473c1.519,7.753,3.833,15.962,8.598,23.207
				c4.591,7.376,12.456,12.601,20.962,15.761c4.288,1.544,8.86,2.383,13.457,2.452c0.575,0.03,1.149-0.003,1.724-0.033
				c0.574-0.034,1.149-0.042,1.722-0.096c1.141-0.146,2.289-0.229,3.413-0.479c2.267-0.385,4.474-1.07,6.6-1.917
				c2.14-0.832,4.126-1.996,6.023-3.252c1.874-1.303,3.579-2.821,5.136-4.467c3.038-3.357,5.414-7.301,6.824-11.556
				c1.455-4.237,2.158-8.686,2.234-13.095c0.022-1.102-0.035-2.203-0.047-3.299c-0.051-1.044-0.173-2.204-0.255-3.294
				c-0.062-1.12-0.267-2.166-0.406-3.238l-0.228-1.596l-0.316-1.587c-0.23-1.053-0.383-2.116-0.675-3.146
				c-0.263-1.035-0.525-2.065-0.786-3.091c-0.621-2.024-1.191-4.045-1.943-5.982c-0.667-1.967-1.522-3.839-2.301-5.713
				c-0.889-1.825-1.705-3.659-2.686-5.381c-0.906-1.762-1.944-3.416-2.937-5.063c-0.501-0.82-1.059-1.596-1.579-2.387
				c-0.528-0.785-1.031-1.579-1.598-2.319c-0.549-0.753-1.092-1.5-1.631-2.24c-0.573-0.714-1.141-1.422-1.703-2.123
				c-1.098-1.429-2.334-2.69-3.471-3.995c-2.404-2.479-4.762-4.827-7.222-6.804c-2.446-1.95-4.994-3.546-7.497-4.83
				c-5.007-2.572-9.808-3.97-13.832-4.464c-4.028-0.551-7.253-0.245-9.382,0.157c-1.08,0.149-1.874,0.419-2.42,0.55
				C786.527,668.164,786.249,668.238,786.249,668.238z M786.185,668.049c0,0,0.284-0.078,0.83-0.228
				c0.549-0.138,1.348-0.416,2.435-0.577c2.146-0.424,5.389-0.747,9.469-0.307c4.066,0.442,8.987,1.586,14.186,4.027
				c2.596,1.213,5.272,2.716,7.893,4.632c2.587,1.919,5.126,4.167,7.629,6.661c4.921,5.059,9.699,11.146,13.511,18.31
				c1.01,1.759,1.855,3.634,2.772,5.5c0.807,1.916,1.689,3.831,2.384,5.846c0.778,1.983,1.374,4.056,2.02,6.132
				c0.548,2.105,1.086,4.235,1.457,6.422l0.307,1.637l0.221,1.671c0.133,1.112,0.333,2.246,0.38,3.345
				c0.072,1.123,0.177,2.181,0.223,3.367c0.002,1.139,0.048,2.279,0.013,3.424c-0.136,4.577-0.896,9.225-2.502,13.643
				c-1.565,4.431-4.141,8.536-7.396,11.991c-1.68,1.683-3.51,3.215-5.501,4.517c-2.015,1.253-4.11,2.396-6.346,3.192
				c-2.22,0.82-4.509,1.468-6.844,1.805c-1.159,0.226-2.339,0.284-3.508,0.402c-1.174,0.032-2.349,0.107-3.519,0.047
				c-4.686-0.114-9.322-1.013-13.653-2.617c-4.329-1.564-8.465-3.702-12.158-6.266c-3.766-2.576-6.945-5.846-9.484-9.47
				c-2.551-3.619-4.495-7.55-6.013-11.52c-1.531-3.972-2.599-8.006-3.374-11.971c-1.563-7.953-2.057-15.562-2.106-22.597
				c-0.016-7.036,0.689-13.498,1.957-19.074c1.238-5.583,3.191-10.242,5.106-13.829c0.979-1.82,2.137-3.262,3.271-4.384
				c1.159-1.101,2.293-1.865,3.255-2.397c0.967-0.521,1.749-0.864,2.28-1.041C785.908,668.149,786.185,668.049,786.185,668.049z"/>
		</g>
		<g>
			<path d="M841.66,762.664c0.113-18.496-15.112-33.989-34.678-34.885c-13.386-0.613-25.364,5.778-32.121,15.765
				c2.98,8.362,7.609,15.994,14.799,21.12C808.283,777.947,829.927,776.135,841.66,762.664z"/>
			<path d="M841.557,762.625l-0.266-2.813c-0.062-0.957-0.322-1.869-0.473-2.798c-0.135-0.93-0.432-1.832-0.701-2.735l-0.388-1.357
				c-0.148-0.445-0.339-0.878-0.506-1.317c-0.63-1.772-1.514-3.438-2.424-5.069l-1.514-2.363l-1.705-2.225
				c-1.217-1.414-2.478-2.796-3.894-4.012l-1.038-0.937l-1.118-0.84c-0.749-0.555-1.47-1.148-2.285-1.605
				c-0.805-0.469-1.557-1.029-2.391-1.446l-2.492-1.268l-2.589-1.064c-0.427-0.192-0.871-0.335-1.32-0.462l-1.337-0.424
				c-0.447-0.136-0.889-0.297-1.343-0.411l-1.373-0.297c-0.918-0.183-1.827-0.444-2.766-0.515l-2.786-0.326
				c-0.95-0.024-1.92-0.108-2.854-0.083c-1.865,0.027-3.77,0.133-5.628,0.487c-1.874,0.279-3.697,0.815-5.5,1.394
				c-1.779,0.646-3.522,1.404-5.173,2.332c-1.675,0.884-3.239,1.961-4.742,3.104c-1.456,1.204-2.869,2.461-4.116,3.875
				c-1.295,1.369-2.386,2.91-3.436,4.459l0.074-0.583c0.658,1.589,1.297,3.182,2.06,4.716c0.355,0.779,0.731,1.547,1.161,2.285
				c0.427,0.739,0.795,1.514,1.267,2.223l1.386,2.145l1.52,2.043c0.482,0.7,1.087,1.298,1.638,1.939l0.843,0.949
				c0.292,0.305,0.611,0.582,0.915,0.874c0.63,0.562,1.197,1.194,1.875,1.696l1.997,1.547c0.642,0.442,1.435,0.932,2.146,1.396
				c0.73,0.461,1.455,0.972,2.199,1.342c1.477,0.807,2.93,1.65,4.511,2.296c1.53,0.743,3.138,1.284,4.732,1.865
				c0.788,0.32,1.628,0.469,2.439,0.713c0.82,0.212,1.63,0.479,2.47,0.597l2.5,0.463c0.838,0.12,1.684,0.179,2.526,0.272
				c0.423,0.037,0.844,0.098,1.268,0.116l1.271,0.013c0.847-0.013,1.699,0.07,2.543-0.021l2.537-0.205
				c0.843-0.099,1.672-0.283,2.511-0.419c0.844-0.119,1.661-0.347,2.481-0.571c0.817-0.23,1.658-0.4,2.442-0.736
				c0.793-0.307,1.602-0.586,2.389-0.914l2.294-1.14c0.393-0.175,0.751-0.407,1.11-0.639l1.092-0.677
				c0.361-0.229,0.736-0.442,1.09-0.687l1.018-0.788C839.104,765.028,840.295,763.799,841.557,762.625z M841.735,762.729
				c-1.151,1.303-2.274,2.657-3.635,3.771l-0.979,0.881c-0.342,0.276-0.707,0.521-1.06,0.783c-0.722,0.499-1.4,1.077-2.177,1.495
				l-2.305,1.304c-0.794,0.383-1.612,0.719-2.42,1.08c-0.799,0.393-1.656,0.618-2.495,0.903c-0.842,0.278-1.683,0.569-2.559,0.717
				c-0.868,0.172-1.732,0.392-2.608,0.524l-2.646,0.304c-0.882,0.122-1.771,0.069-2.659,0.111l-1.333,0.029
				c-0.443-0.005-0.886-0.053-1.329-0.076c-0.885-0.067-1.775-0.103-2.658-0.198l-2.631-0.424c-0.885-0.113-1.735-0.376-2.598-0.585
				c-0.854-0.242-1.738-0.39-2.567-0.71l-2.517-0.87c-0.849-0.269-1.629-0.701-2.446-1.045c-1.638-0.674-3.192-1.572-4.758-2.439
				c-0.809-0.414-1.49-0.929-2.221-1.404c-0.733-0.5-1.413-0.931-2.191-1.485l-2.09-1.682c-0.707-0.547-1.298-1.225-1.951-1.831
				c-0.315-0.314-0.646-0.615-0.948-0.942l-0.868-1.014c-0.568-0.685-1.188-1.328-1.682-2.068c-0.514-0.724-1.049-1.433-1.544-2.167
				l-1.368-2.275c-0.465-0.754-0.821-1.564-1.235-2.342c-0.419-0.778-0.781-1.581-1.12-2.394c-0.746-1.597-1.29-3.271-1.89-4.918
				l-0.118-0.326l0.192-0.257c1.166-1.56,2.38-3.082,3.768-4.438c1.345-1.397,2.849-2.626,4.388-3.79
				c1.58-1.107,3.173-2.205,4.898-3.071c1.69-0.932,3.492-1.629,5.288-2.319c1.825-0.612,3.677-1.16,5.572-1.523l1.42-0.275
				l1.436-0.194c0.951-0.164,1.927-0.199,2.897-0.283c0.974-0.077,1.916-0.043,2.875-0.07c1,0.045,1.943,0.122,2.921,0.185
				c0.975,0.025,1.926,0.243,2.889,0.385l1.442,0.235c0.478,0.095,0.944,0.238,1.418,0.354c0.936,0.269,1.907,0.438,2.811,0.815
				l2.742,1.039l2.625,1.312c0.874,0.438,1.679,1.005,2.513,1.514c0.848,0.493,1.6,1.124,2.377,1.717l1.16,0.897l1.078,0.996
				c1.477,1.286,2.744,2.788,3.976,4.298l1.714,2.374l1.458,2.537c0.864,1.745,1.688,3.513,2.25,5.375
				c0.149,0.462,0.322,0.915,0.452,1.382l0.321,1.419c0.204,0.947,0.433,1.886,0.5,2.861c0.081,0.966,0.271,1.927,0.258,2.882
				l-0.009,2.911L841.735,762.729z"/>
		</g>
		<g>
			<path fill="#FFFEF3" d="M741.41,680.832c-3.147-0.924-6.281-1.471-9.214-1.588c-14.431-0.565-25.292,10.293-33.326,21.097
				c-24.64,33.126-30.81,106.138,36.049,101.566c41.603-2.844,49.993-59.269,37.212-90.397
				C766.466,697.71,756.056,685.121,741.41,680.832z"/>
			<path d="M741.384,680.929c0,0-0.327-0.086-0.964-0.252c-0.636-0.172-1.58-0.424-2.827-0.651
				c-2.467-0.453-6.253-1.066-10.917-0.245c-4.652,0.81-10.047,3.22-15.065,7.465c-5.058,4.198-9.832,9.963-14.307,16.717
				c-2.133,3.387-4.159,7.086-5.99,11.031c-1.788,3.968-3.424,8.168-4.791,12.591c-2.635,8.854-4.511,18.569-4.288,28.702
				c0.13,5.049,0.741,10.2,2.197,15.201c1.442,4.989,3.641,9.871,6.849,14.104c3.194,4.233,7.339,7.781,12.06,10.315
				c4.735,2.523,9.969,4.041,15.281,4.862l4.013,0.439c1.337,0.143,2.69,0.104,4.032,0.165l2.016,0.057
				c0.672-0.004,1.344-0.055,2.016-0.08l4.023-0.186c1.278-0.135,2.672-0.305,3.991-0.472c1.283-0.288,2.574-0.499,3.843-0.842
				c2.533-0.727,5.027-1.591,7.34-2.811c4.653-2.364,8.812-5.615,12.126-9.535c3.341-3.898,5.975-8.305,8.013-12.875
				c4.059-9.175,5.955-18.888,6.437-28.096c0.252-4.611,0.108-9.112-0.253-13.441c-0.367-4.33-1.033-8.488-1.972-12.408
				c-1.851-7.852-4.928-14.691-8.469-20.22c-3.535-5.546-7.536-9.781-11.278-12.676c-3.715-2.949-7.106-4.601-9.454-5.542
				c-1.157-0.527-2.104-0.773-2.72-1.001C741.703,681.036,741.384,680.929,741.384,680.929z M741.437,680.735
				c0,0,0.325,0.107,0.952,0.313c0.619,0.224,1.574,0.465,2.742,0.985c2.37,0.932,5.783,2.576,9.598,5.456
				c0.473,0.364,0.959,0.737,1.458,1.12c0.475,0.412,0.961,0.834,1.459,1.267c0.511,0.419,1.002,0.883,1.494,1.366
				c0.49,0.486,1.023,0.952,1.509,1.485c2.016,2.062,3.982,4.495,5.882,7.236c3.763,5.494,7.247,12.324,9.33,20.312
				c2.092,7.967,3.131,16.931,2.646,26.363c-0.231,4.714-0.82,9.546-1.868,14.399c-1.051,4.851-2.553,9.736-4.717,14.443
				c-2.151,4.704-4.925,9.255-8.449,13.289c-3.499,4.05-7.883,7.449-12.797,9.849c-2.443,1.235-5.064,2.099-7.714,2.81
				c-1.335,0.337-2.716,0.543-4.072,0.817c-1.36,0.148-2.655,0.288-4.069,0.412l-4.097,0.09c-0.683,0.008-1.365,0.042-2.049,0.029
				l-2.052-0.107c-1.365-0.096-2.738-0.093-4.098-0.271l-4.075-0.55c-5.396-0.95-10.698-2.618-15.468-5.289
				c-4.79-2.619-8.985-6.271-12.196-10.598c-3.231-4.315-5.567-9.211-7.068-14.268c-1.493-5.063-2.301-10.249-2.56-15.372
				c-0.281-5.128,0.054-10.187,0.697-15.082c0.655-4.896,1.648-9.648,3.031-14.151c1.372-4.503,2.942-8.818,4.814-12.842
				c1.899-4.011,3.994-7.75,6.303-11.198c4.682-6.714,9.79-12.37,15.064-16.481c2.635-2.054,5.327-3.694,7.977-4.853
				c2.649-1.154,5.21-1.903,7.573-2.283c4.761-0.719,8.522-0.093,11.02,0.375c1.259,0.237,2.2,0.494,2.834,0.67
				C741.107,680.647,741.437,680.735,741.437,680.735z"/>
		</g>
		<g>
			<path d="M775.922,757.084c-8.939-12.528-25.665-19.396-43.108-16.201c-23.307,4.269-39.06,24.884-35.184,46.046
				c0.585,3.188,0.832,4.334,2.182,7.146c8.188,5.114,20.046,9.625,34.555,8.634C759.211,801.01,772.204,780.202,775.922,757.084z"
				/>
			<path d="M775.813,757.111c-1.602-1.924-3.21-3.805-5.106-5.397c-1.852-1.658-3.886-3.095-5.984-4.4
				c-1.075-0.615-2.129-1.263-3.259-1.77c-0.56-0.263-1.104-0.558-1.674-0.794l-1.718-0.691c-1.133-0.492-2.34-0.784-3.497-1.203
				c-1.194-0.304-2.376-0.662-3.586-0.893c-1.212-0.22-2.415-0.487-3.644-0.594l-1.833-0.218l-1.844-0.1
				c-2.458-0.146-4.921,0.006-7.369,0.232c-1.202,0.169-2.475,0.331-3.615,0.542l-3.671,0.825c-1.189,0.323-2.329,0.729-3.5,1.087
				c-0.588,0.164-1.16,0.388-1.727,0.633l-1.711,0.703c-1.164,0.424-2.232,1.047-3.332,1.61c-0.543,0.293-1.105,0.557-1.635,0.874
				l-1.559,1.006l-1.562,1.005c-0.501,0.362-0.978,0.758-1.469,1.136c-0.979,0.76-1.972,1.509-2.843,2.396
				c-0.893,0.86-1.848,1.668-2.618,2.646c-0.788,0.958-1.687,1.835-2.36,2.884c-1.479,2-2.753,4.15-3.817,6.396l-0.73,1.717
				c-0.241,0.573-0.509,1.136-0.667,1.739c-0.341,1.194-0.794,2.359-1.045,3.575c-0.218,1.223-0.535,2.429-0.673,3.661
				c-0.078,1.238-0.232,2.472-0.249,3.709c0.05,1.238,0.056,2.478,0.139,3.708l0.529,3.669l0.389,1.832
				c0.137,0.607,0.31,1.178,0.461,1.768c0.206,0.569,0.405,1.135,0.637,1.696l0.782,1.664l-0.265-0.296l2.781,1.552
				c0.925,0.52,1.906,0.933,2.855,1.404c0.943,0.485,1.935,0.863,2.923,1.248c0.991,0.374,1.954,0.821,2.979,1.101l3.028,0.955
				c1.021,0.272,2.06,0.487,3.087,0.734l1.545,0.359l1.569,0.229l3.137,0.46l3.165,0.187l1.581,0.094
				c0.527,0.026,1.056-0.021,1.584-0.027l3.166-0.097l0.739-0.026l0.8-0.097l1.602-0.191c2.189-0.164,4.127-0.762,6.16-1.193
				c1.973-0.695,3.996-1.259,5.857-2.229l1.427-0.655c0.467-0.235,0.902-0.527,1.355-0.788l1.349-0.804
				c0.452-0.266,0.907-0.525,1.314-0.857l2.534-1.865c0.796-0.682,1.565-1.399,2.352-2.098c0.816-0.669,1.468-1.508,2.2-2.264
				l1.073-1.162l0.974-1.25c0.625-0.851,1.34-1.639,1.895-2.542l1.734-2.664c1.036-1.849,2.14-3.673,2.993-5.626
				c0.964-1.903,1.677-3.918,2.467-5.902c0.651-2.033,1.4-4.043,1.912-6.125C774.938,761.287,775.325,759.191,775.813,757.111z
				 M776.021,757.1c-0.331,2.126-0.593,4.273-1.097,6.375c-0.403,2.124-1.007,4.201-1.592,6.287
				c-0.714,2.043-1.354,4.12-2.252,6.101c-0.788,2.026-1.827,3.943-2.822,5.882l-1.715,2.789c-0.548,0.945-1.264,1.781-1.889,2.679
				l-0.976,1.319l-1.083,1.237c-0.74,0.808-1.399,1.694-2.231,2.418c-0.801,0.752-1.587,1.522-2.404,2.259l-2.614,2.023
				c-0.426,0.354-0.901,0.634-1.373,0.92l-1.411,0.865c-0.476,0.28-0.934,0.593-1.423,0.847l-1.496,0.712
				c-1.96,1.036-4.076,1.689-6.165,2.407c-2.166,0.473-4.379,1.1-6.493,1.249l-1.602,0.189l-0.801,0.095
				c-0.378,0.033-0.576,0.017-0.873,0.027l-3.283,0.054c-0.547-0.001-1.094,0.038-1.64,0.004l-1.638-0.12l-3.272-0.242l-3.239-0.521
				l-1.619-0.263l-1.592-0.394c-1.059-0.271-2.126-0.509-3.177-0.806l-3.107-1.04c-1.046-0.315-2.03-0.8-3.04-1.211
				c-1.006-0.422-2.014-0.838-2.973-1.36c-0.965-0.509-1.959-0.96-2.896-1.517l-2.8-1.686l-0.188-0.112l-0.077-0.184l-0.751-1.771
				c-0.224-0.606-0.419-1.233-0.613-1.851c-0.139-0.631-0.302-1.27-0.416-1.891l-0.32-1.861l-0.413-3.797
				c-0.044-1.27-0.009-2.543-0.016-3.811c0.061-1.267,0.259-2.525,0.382-3.784c0.161-1.256,0.495-2.484,0.735-3.726
				c0.271-1.236,0.745-2.418,1.108-3.628c0.169-0.611,0.447-1.182,0.699-1.761l0.765-1.735c1.091-2.277,2.351-4.478,3.832-6.527
				c0.661-1.084,1.548-1.996,2.326-2.993c0.768-1.012,1.7-1.871,2.573-2.789c0.854-0.943,1.833-1.749,2.802-2.568
				c0.486-0.407,0.96-0.833,1.458-1.226l1.557-1.099l1.561-1.098c0.532-0.349,1.097-0.643,1.645-0.967
				c1.107-0.626,2.188-1.312,3.367-1.799l1.739-0.798c0.576-0.273,1.158-0.537,1.776-0.727c1.217-0.404,2.438-0.86,3.658-1.219
				l3.66-0.869c1.321-0.254,2.541-0.407,3.82-0.594c2.545-0.225,5.104-0.344,7.654-0.169l1.912,0.123l1.899,0.253
				c1.271,0.14,2.514,0.442,3.764,0.698c1.247,0.268,2.465,0.664,3.691,1.007l1.798,0.653c0.602,0.213,1.196,0.439,1.772,0.716
				l1.743,0.782c0.577,0.266,1.127,0.591,1.691,0.884c1.141,0.567,2.201,1.274,3.277,1.948c0.549,0.321,1.04,0.729,1.559,1.096
				c0.505,0.384,1.037,0.732,1.52,1.146c0.946,0.847,1.946,1.628,2.81,2.561c1.839,1.744,3.386,3.778,4.807,5.828l0.026,0.038
				L776.021,757.1z"/>
		</g>
	</g>
	<g>
		<path d="M723.305,846.585c0,0,0.302-0.86,1.045-2.229c0.37-0.685,0.838-1.508,1.44-2.404c0.587-0.91,1.32-1.885,2.15-2.929
			c0.853-1.024,1.806-2.121,2.965-3.139c1.153-1.022,2.536-1.93,4.019-2.757c1.48-0.833,3.042-1.604,4.725-2.225
			c0.855-0.273,1.762-0.492,2.727-0.499c0.24,0.01,0.485,0.008,0.73,0.028l0.734,0.14l1.271,0.247l1.292,0.25
			c0.427,0.069,0.826,0.075,1.23,0.118c0.798,0.123,1.59,0.098,2.36,0.129c0.364-0.033,0.727-0.066,1.087-0.1
			c0.174-0.021,0.317-0.082,0.477-0.116c0.155-0.038,0.318-0.07,0.421-0.138c0.114-0.055,0.258-0.105,0.287-0.151l0.046-0.028
			c0.002-0.002-0.032,0.019-0.045,0.03l-0.024,0.022l-0.011,0.013c-0.027,0.026,0.172-0.158,0.096-0.087
			c-0.015,0.009,0.114-0.096,0.222-0.162c0.099-0.064,0.248-0.145,0.316-0.167c0.159-0.061,0.331-0.112,0.494-0.142
			c0.622-0.084,1.132,0.07,1.475,0.23c0.168,0.082,0.337,0.171,0.495,0.266l0.359,0.275c0.886,0.749,1.406,1.508,1.85,2.247
			c0.47,0.743,0.791,1.479,1.129,2.199c0.616,1.443,1.057,2.833,1.442,4.112c0.344,1.291,0.654,2.471,0.844,3.535
			c0.222,1.056,0.372,1.985,0.466,2.757c0.207,1.538,0.252,2.433,0.252,2.433l-0.289,0.082c0,0-0.453-0.777-1.116-2.165
			c-0.325-0.696-0.739-1.532-1.183-2.495c-0.441-0.957-0.939-2.037-1.482-3.216c-0.531-1.171-1.14-2.416-1.783-3.694
			c-0.338-0.616-0.662-1.284-1.035-1.872c-0.344-0.617-0.772-1.188-1.098-1.534c-0.165-0.233-0.302-0.11,0.123-0.17
			c0.062-0.007,0.135-0.025,0.193-0.059c0.017-0.012,0.126-0.056,0.178-0.097c0.063-0.041,0.145-0.123,0.091-0.078
			c-0.086,0.079,0.103-0.097,0.065-0.063l-0.041,0.037l-0.086,0.071c-0.053,0.043-0.126,0.101-0.168,0.126l-0.226,0.129
			c-0.319,0.192-0.58,0.261-0.858,0.356c-0.284,0.108-0.54,0.142-0.8,0.182c-0.259,0.035-0.527,0.094-0.776,0.102
			c-0.491-0.003-0.993,0.018-1.476-0.021c-0.466-0.071-0.935-0.144-1.403-0.216c-0.469-0.066-0.911-0.251-1.364-0.372
			c-0.441-0.151-0.904-0.284-1.315-0.454l-1.201-0.539l-1.224-0.539l-0.526-0.204c-0.184-0.048-0.373-0.081-0.563-0.123
			c-0.773-0.099-1.592,0.011-2.371,0.251c-1.568,0.509-2.925,1.524-4.063,2.641c-1.146,1.122-2.132,2.317-3.14,3.371
			c-1.001,1.063-1.996,2.026-2.896,2.946c-0.917,0.912-1.757,1.748-2.501,2.489c-0.745,0.747-1.418,1.385-1.978,1.91
			c-1.113,1.056-1.808,1.628-1.808,1.628L723.305,846.585z"/>
	</g>
	<g>
		<path fill="#FFFFFF" d="M294.432,301.467h-4.021c-2.205,0-4.082-0.505-5.629-1.519c-1.551-1.012-2.324-2.263-2.324-3.753
			c0-1.488,0.773-2.739,2.324-3.753c1.547-1.012,3.424-1.519,5.629-1.519h23.861c2.203,0,4.08,0.507,5.629,1.519
			c1.549,1.014,2.324,2.265,2.324,3.753c0,1.49-0.775,2.741-2.324,3.753c-1.549,1.014-3.426,1.519-5.629,1.519h-4.021v37.087h4.021
			c2.264,0,4.154,0.507,5.674,1.519c1.52,1.014,2.279,2.294,2.279,3.843c0,1.43-0.791,2.667-2.369,3.708
			c-1.578,1.043-3.439,1.564-5.584,1.564H290.41c-2.205,0-4.082-0.505-5.629-1.519c-1.551-1.013-2.324-2.264-2.324-3.753
			c0-1.43,0.773-2.681,2.324-3.753c1.547-1.072,3.424-1.608,5.629-1.608h4.021V301.467z"/>
		<path fill="#FFFFFF" d="M372.268,320.056c0-3.336,1.459-6.196,4.379-8.579c3.633-3.097,8.787-4.647,15.459-4.647
			c6.555,0,11.678,1.519,15.371,4.558c3.039,2.622,4.559,5.511,4.559,8.668v23.86c0,1.43-0.791,2.667-2.369,3.708
			c-1.578,1.043-3.439,1.564-5.584,1.564c-2.205,0-4.082-0.505-5.631-1.519c-1.549-1.013-2.324-2.264-2.324-3.753v-23.771
			c0-1.191-0.4-1.951-1.205-2.279c-0.805-0.327-1.742-0.492-2.816-0.492c-1.191,0-1.996,0.089-2.412,0.268
			c-1.014,0.478-1.52,1.311-1.52,2.502v23.771c0,1.43-0.789,2.667-2.367,3.708c-1.58,1.043-3.441,1.564-5.586,1.564
			c-2.205,0-4.082-0.505-5.629-1.519c-1.551-1.013-2.324-2.264-2.324-3.753V320.056z"/>
		<path fill="#FFFFFF" d="M433.303,335.962c0,1.729,1.371,2.592,4.111,2.592h4.111c0.416-1.073,1.34-1.996,2.77-2.771
			c1.43-0.773,3.068-1.162,4.916-1.162c2.203,0,4.08,0.507,5.629,1.519c1.549,1.014,2.324,2.265,2.324,3.753
			c0,1.251-0.328,2.428-0.982,3.53c-0.656,1.103-1.58,2.086-2.771,2.949c-1.191,0.864-2.65,1.55-4.379,2.055
			c-1.729,0.507-3.664,0.76-5.809,0.76h-5.988c-4.945,0-9.234-0.983-12.867-2.949c-4.646-2.382-6.971-5.809-6.971-10.277v-15.907
			c0-3.336,1.459-6.196,4.379-8.579c3.633-3.097,8.787-4.647,15.459-4.647c6.555,0,11.678,1.519,15.371,4.558
			c3.039,2.622,4.559,5.511,4.559,8.668c0,3.217-1.49,6.077-4.469,8.579c-3.635,3.099-8.789,4.647-15.461,4.647h-3.932V335.962z
			 M433.303,322.736h3.932c1.549,0,2.607-0.208,3.174-0.625c0.564-0.416,0.848-1.102,0.848-2.055c0-1.131-0.4-1.861-1.205-2.189
			c-0.805-0.327-1.742-0.492-2.816-0.492c-1.191,0-1.996,0.089-2.412,0.268c-1.014,0.478-1.52,1.311-1.52,2.502V322.736z"/>
		<path fill="#FFFFFF" d="M478.432,335.962c0,1.729,1.371,2.592,4.111,2.592h4.111c0.416-1.073,1.34-1.996,2.77-2.771
			c1.43-0.773,3.068-1.162,4.916-1.162c2.203,0,4.08,0.507,5.629,1.519c1.549,1.014,2.324,2.265,2.324,3.753
			c0,1.251-0.328,2.428-0.982,3.53c-0.656,1.103-1.58,2.086-2.771,2.949c-1.191,0.864-2.65,1.55-4.379,2.055
			c-1.729,0.507-3.664,0.76-5.809,0.76h-5.988c-4.945,0-9.234-0.983-12.867-2.949c-4.646-2.382-6.971-5.809-6.971-10.277v-15.907
			c0-3.336,1.459-6.196,4.379-8.579c3.633-3.097,8.787-4.647,15.459-4.647c6.555,0,11.678,1.519,15.371,4.558
			c3.039,2.622,4.559,5.511,4.559,8.668c0,3.217-1.49,6.077-4.469,8.579c-3.635,3.099-8.789,4.647-15.461,4.647h-3.932V335.962z
			 M478.432,322.736h3.932c1.549,0,2.607-0.208,3.174-0.625c0.564-0.416,0.848-1.102,0.848-2.055c0-1.131-0.4-1.861-1.205-2.189
			c-0.805-0.327-1.742-0.492-2.816-0.492c-1.191,0-1.996,0.089-2.412,0.268c-1.014,0.478-1.52,1.311-1.52,2.502V322.736z"/>
		<path fill="#FFFFFF" d="M507.652,320.056c0-4.408,2.293-7.833,6.883-10.277c3.752-1.966,8.07-2.949,12.957-2.949h4.021v-10.635
			c0-1.488,0.773-2.739,2.324-3.753c1.547-1.012,3.424-1.519,5.629-1.519c2.203,0,4.08,0.507,5.631,1.519
			c1.549,1.014,2.322,2.265,2.322,3.753v39.768c0,3.217-1.488,6.077-4.467,8.579c-3.635,3.099-8.789,4.647-15.461,4.647
			c-6.613,0-11.738-1.548-15.371-4.647c-2.979-2.502-4.469-5.362-4.469-8.579V320.056z M523.561,335.873
			c0,1.132,0.477,1.907,1.43,2.324c0.535,0.239,1.369,0.357,2.502,0.357c1.549,0,2.605-0.208,3.172-0.625
			c0.566-0.417,0.85-1.102,0.85-2.056v-18.499h-3.842c-1.73,0-2.92,0.328-3.576,0.983c-0.357,0.357-0.535,0.924-0.535,1.698V335.873
			z"/>
		<path fill="#FFFFFF" d="M601.934,344.542c-2.98-2.502-4.469-5.362-4.469-8.579v-31.814c0-1.488,0.773-2.74,2.324-3.753
			c1.547-1.012,3.424-1.519,5.629-1.519c2.203,0,4.08,0.507,5.631,1.519c1.547,1.014,2.322,2.265,2.322,3.753v2.681h3.932
			c2.205,0,4.08,0.507,5.631,1.519c1.549,1.014,2.324,2.265,2.324,3.753c0,1.49-0.76,2.741-2.279,3.753
			c-1.52,1.014-3.412,1.519-5.676,1.519h-3.932v18.499c0,1.132,0.477,1.907,1.43,2.324c0.537,0.239,1.371,0.357,2.502,0.357h4.291
			c0.416-1.073,1.34-1.996,2.77-2.771c1.43-0.773,3.068-1.162,4.916-1.162c2.203,0,4.08,0.507,5.629,1.519
			c1.549,1.014,2.324,2.265,2.324,3.753c0,2.801-1.4,5.064-4.201,6.792c-2.74,1.669-5.986,2.502-9.74,2.502h-5.988
			C610.691,349.188,605.566,347.64,601.934,344.542z"/>
		<path fill="#FFFFFF" d="M641.699,320.056c0-3.336,1.459-6.196,4.379-8.579c3.635-3.097,8.787-4.647,15.461-4.647
			c6.553,0,11.676,1.519,15.371,4.558c3.039,2.622,4.557,5.511,4.557,8.668v15.907c0,3.217-1.488,6.077-4.467,8.579
			c-3.635,3.099-8.789,4.647-15.461,4.647c-6.613,0-11.738-1.548-15.371-4.647c-2.979-2.502-4.469-5.362-4.469-8.579V320.056z
			 M657.607,335.873c0,1.132,0.477,1.907,1.43,2.324c0.535,0.239,1.369,0.357,2.502,0.357c1.549,0,2.605-0.208,3.172-0.625
			c0.566-0.417,0.85-1.102,0.85-2.056v-15.728c0-1.191-0.402-1.951-1.207-2.279c-0.805-0.327-1.742-0.492-2.814-0.492
			c-1.193,0-1.996,0.089-2.412,0.268c-1.014,0.478-1.52,1.311-1.52,2.502V335.873z"/>
		<path fill="#FFFFFF" d="M771.277,351.78c0,3.275-1.488,6.166-4.467,8.668c-3.635,3.097-8.789,4.647-15.461,4.647h-5.898
			c-3.635,0-6.791-0.805-9.473-2.413c-2.979-1.787-4.469-4.082-4.469-6.881c0-1.49,0.773-2.741,2.324-3.753
			c1.549-1.014,3.426-1.52,5.631-1.52c1.904,0,3.543,0.357,4.914,1.073c1.369,0.715,2.293,1.667,2.771,2.859h4.199
			c1.549,0,2.605-0.209,3.172-0.625c0.566-0.417,0.85-1.103,0.85-2.055v-2.592h-4.021c-4.945,0-9.234-0.983-12.869-2.949
			c-4.646-2.382-6.971-5.809-6.971-10.277v-15.907c0-3.336,1.459-6.196,4.379-8.579c3.635-3.097,8.787-4.647,15.461-4.647
			c6.553,0,11.676,1.519,15.371,4.558c3.039,2.622,4.557,5.511,4.557,8.668V351.78z M755.371,320.145
			c0-1.191-0.402-1.951-1.207-2.279c-0.805-0.327-1.742-0.492-2.814-0.492c-1.193,0-1.996,0.089-2.412,0.268
			c-1.014,0.478-1.52,1.311-1.52,2.502v15.817c0,1.729,1.369,2.592,4.111,2.592h3.842V320.145z"/>
		<path fill="#FFFFFF" d="M792.547,335.962c0,1.729,1.369,2.592,4.111,2.592h4.109c0.416-1.073,1.342-1.996,2.771-2.771
			c1.43-0.773,3.066-1.162,4.914-1.162c2.203,0,4.08,0.507,5.631,1.519c1.549,1.014,2.322,2.265,2.322,3.753
			c0,1.251-0.328,2.428-0.982,3.53c-0.656,1.103-1.58,2.086-2.77,2.949c-1.193,0.864-2.652,1.55-4.379,2.055
			c-1.729,0.507-3.664,0.76-5.809,0.76h-5.988c-4.945,0-9.234-0.983-12.869-2.949c-4.646-2.382-6.971-5.809-6.971-10.277v-15.907
			c0-3.336,1.459-6.196,4.379-8.579c3.635-3.097,8.787-4.647,15.461-4.647c6.553,0,11.676,1.519,15.371,4.558
			c3.039,2.622,4.557,5.511,4.557,8.668c0,3.217-1.488,6.077-4.467,8.579c-3.635,3.099-8.789,4.647-15.461,4.647h-3.932V335.962z
			 M792.547,322.736h3.932c1.549,0,2.605-0.208,3.172-0.625c0.566-0.416,0.85-1.102,0.85-2.055c0-1.131-0.402-1.861-1.207-2.189
			c-0.805-0.327-1.742-0.492-2.814-0.492c-1.193,0-1.996,0.089-2.412,0.268c-1.014,0.478-1.52,1.311-1.52,2.502V322.736z"/>
		<path fill="#FFFFFF" d="M826.236,344.542c-2.98-2.502-4.469-5.362-4.469-8.579v-31.814c0-1.488,0.773-2.74,2.324-3.753
			c1.547-1.012,3.424-1.519,5.629-1.519c2.203,0,4.08,0.507,5.631,1.519c1.547,1.014,2.322,2.265,2.322,3.753v2.681h3.932
			c2.205,0,4.08,0.507,5.631,1.519c1.549,1.014,2.324,2.265,2.324,3.753c0,1.49-0.76,2.741-2.279,3.753
			c-1.52,1.014-3.412,1.519-5.676,1.519h-3.932v18.499c0,1.132,0.477,1.907,1.43,2.324c0.537,0.239,1.371,0.357,2.502,0.357h4.291
			c0.416-1.073,1.34-1.996,2.77-2.771c1.43-0.773,3.068-1.162,4.916-1.162c2.203,0,4.08,0.507,5.629,1.519
			c1.549,1.014,2.324,2.265,2.324,3.753c0,2.801-1.4,5.064-4.201,6.792c-2.74,1.669-5.986,2.502-9.74,2.502h-5.988
			C834.994,349.188,829.869,347.64,826.236,344.542z"/>
		<path fill="#FFFFFF" d="M325.799,451.154c0,1.43-0.789,2.667-2.367,3.708c-1.58,1.043-3.441,1.564-5.586,1.564
			c-2.205,0-4.082-0.505-5.631-1.519c-1.549-1.013-2.322-2.264-2.322-3.753v-23.771c0-1.191-0.402-1.951-1.207-2.279
			c-0.805-0.327-1.742-0.492-2.814-0.492c-1.193,0-1.998,0.089-2.414,0.268c-1.014,0.478-1.518,1.311-1.518,2.502v23.771
			c0,1.43-0.791,2.667-2.369,3.708c-1.578,1.043-3.439,1.564-5.586,1.564c-2.203,0-4.08-0.505-5.629-1.519
			c-1.551-1.013-2.324-2.264-2.324-3.753v-23.771c0-1.191-0.389-1.951-1.162-2.279c-0.773-0.327-1.697-0.492-2.77-0.492
			c-1.252,0-2.086,0.089-2.502,0.268c-1.014,0.478-1.52,1.311-1.52,2.502v23.771c0,1.43-0.775,2.667-2.324,3.708
			c-1.549,1.043-3.426,1.564-5.629,1.564c-2.145,0-3.992-0.505-5.541-1.519c-1.551-1.013-2.324-2.264-2.324-3.753v-23.86
			c0-3.336,1.459-6.196,4.379-8.579c3.635-3.097,8.787-4.647,15.461-4.647c2.383,0,4.572,0.209,6.568,0.625
			c1.996,0.417,3.768,0.983,5.316,1.698c1.549-0.773,3.291-1.354,5.229-1.743c1.936-0.387,4.156-0.581,6.658-0.581
			c6.553,0,11.676,1.519,15.371,4.558c3.037,2.622,4.557,5.511,4.557,8.668V451.154z"/>
		<path fill="#FFFFFF" d="M355.021,456.427H351c-6.613,0-11.738-1.548-15.371-4.647c-2.979-2.502-4.469-5.362-4.469-8.579v-23.86
			c0-1.489,0.773-2.74,2.324-3.753c1.549-1.012,3.426-1.519,5.631-1.519c2.203,0,4.08,0.507,5.629,1.519
			c1.549,1.014,2.324,2.265,2.324,3.753v23.771c0,1.132,0.477,1.907,1.43,2.324c0.535,0.239,1.369,0.357,2.502,0.357h4.021V419.34
			c0-1.489,0.773-2.74,2.324-3.753c1.547-1.012,3.424-1.519,5.629-1.519c2.203,0,4.08,0.507,5.631,1.519
			c1.549,1.014,2.322,2.265,2.322,3.753v39.678c0,3.275-1.488,6.166-4.467,8.668c-3.635,3.097-8.789,4.647-15.461,4.647h-5.898
			c-3.635,0-6.791-0.805-9.473-2.413c-2.979-1.787-4.469-4.082-4.469-6.881c0-1.49,0.773-2.741,2.324-3.753
			c1.549-1.014,3.426-1.52,5.631-1.52c1.904,0,3.543,0.357,4.914,1.073c1.369,0.715,2.293,1.667,2.771,2.859H351
			c1.549,0,2.605-0.209,3.172-0.625c0.566-0.417,0.85-1.103,0.85-2.055V456.427z"/>
		<path fill="#FFFFFF" d="M420.971,403.433c0-1.488,0.773-2.739,2.324-3.753c1.549-1.012,3.426-1.519,5.631-1.519
			c2.203,0,4.08,0.507,5.629,1.519c1.549,1.014,2.324,2.265,2.324,3.753v47.721c0,1.43-0.791,2.667-2.369,3.708
			c-1.578,1.043-3.439,1.564-5.584,1.564c-2.205,0-4.082-0.505-5.631-1.519c-1.551-1.013-2.324-2.264-2.324-3.753V403.433z"/>
		<path fill="#FFFFFF" d="M455.779,411.163c-1.58,1.043-3.441,1.564-5.586,1.564c-2.205,0-4.082-0.505-5.629-1.519
			c-1.551-1.012-2.324-2.264-2.324-3.753c0-1.43,0.773-2.681,2.324-3.753c1.547-1.072,3.424-1.608,5.629-1.608
			c2.264,0,4.156,0.507,5.676,1.519c1.518,1.014,2.277,2.294,2.277,3.843C458.146,408.884,457.357,410.122,455.779,411.163z
			 M458.146,451.154c0,1.43-0.789,2.667-2.367,3.708c-1.58,1.043-3.441,1.564-5.586,1.564c-2.205,0-4.082-0.505-5.629-1.519
			c-1.551-1.013-2.324-2.264-2.324-3.753V419.34c0-1.489,0.773-2.74,2.324-3.753c1.547-1.012,3.424-1.519,5.629-1.519
			c2.203,0,4.08,0.507,5.631,1.519c1.547,1.014,2.322,2.265,2.322,3.753V451.154z"/>
		<path fill="#FFFFFF" d="M492.238,409.287c-0.625,0.388-0.938,1.088-0.938,2.1v2.681h4.021c2.203,0,4.08,0.507,5.629,1.519
			c1.549,1.014,2.324,2.265,2.324,3.753c0,1.49-0.775,2.741-2.324,3.753c-1.549,1.014-3.426,1.519-5.629,1.519h-4.021v26.542
			c0,1.43-0.775,2.667-2.324,3.708c-1.551,1.043-3.426,1.564-5.631,1.564c-2.145,0-3.99-0.505-5.539-1.519
			c-1.551-1.013-2.324-2.264-2.324-3.753v-26.542h-4.021c-2.205,0-4.082-0.505-5.629-1.519c-1.551-1.013-2.324-2.264-2.324-3.753
			c0-1.489,0.773-2.74,2.324-3.753c1.547-1.012,3.424-1.519,5.629-1.519h4.021v-2.681c0-4.408,2.293-7.833,6.881-10.277
			c3.633-1.966,7.953-2.949,12.959-2.949c2.203,0,4.08,0.507,5.629,1.519c1.549,1.014,2.324,2.265,2.324,3.753
			c0,1.49-0.775,2.741-2.324,3.753c-1.549,1.014-3.426,1.519-5.629,1.519C493.893,408.706,492.863,408.9,492.238,409.287z"/>
		<path fill="#FFFFFF" d="M522.041,443.201c0,1.729,1.371,2.592,4.111,2.592h4.111c0.416-1.073,1.34-1.996,2.77-2.771
			c1.43-0.773,3.068-1.162,4.916-1.162c2.203,0,4.08,0.507,5.629,1.519c1.549,1.014,2.324,2.265,2.324,3.753
			c0,1.251-0.328,2.428-0.982,3.53c-0.656,1.103-1.58,2.086-2.771,2.949c-1.191,0.864-2.65,1.55-4.379,2.055
			c-1.729,0.507-3.664,0.76-5.809,0.76h-5.988c-4.945,0-9.234-0.983-12.867-2.949c-4.646-2.382-6.971-5.809-6.971-10.277v-15.907
			c0-3.336,1.459-6.196,4.379-8.579c3.633-3.097,8.787-4.647,15.459-4.647c6.555,0,11.678,1.519,15.371,4.558
			c3.039,2.622,4.559,5.511,4.559,8.668c0,3.217-1.49,6.077-4.469,8.579c-3.635,3.099-8.789,4.647-15.461,4.647h-3.932V443.201z
			 M522.041,429.975h3.932c1.549,0,2.607-0.208,3.174-0.625c0.564-0.416,0.848-1.102,0.848-2.055c0-1.131-0.4-1.861-1.205-2.189
			c-0.805-0.327-1.742-0.492-2.816-0.492c-1.191,0-1.996,0.089-2.412,0.268c-1.014,0.478-1.52,1.311-1.52,2.502V429.975z"/>
		<path fill="#FFFFFF" d="M609.484,411.163c-1.58,1.043-3.441,1.564-5.586,1.564c-2.205,0-4.082-0.505-5.629-1.519
			c-1.551-1.012-2.324-2.264-2.324-3.753c0-1.43,0.773-2.681,2.324-3.753c1.547-1.072,3.424-1.608,5.629-1.608
			c2.264,0,4.156,0.507,5.676,1.519c1.518,1.014,2.277,2.294,2.277,3.843C611.852,408.884,611.063,410.122,609.484,411.163z
			 M611.852,451.154c0,1.43-0.789,2.667-2.367,3.708c-1.58,1.043-3.441,1.564-5.586,1.564c-2.205,0-4.082-0.505-5.629-1.519
			c-1.551-1.013-2.324-2.264-2.324-3.753V419.34c0-1.489,0.773-2.74,2.324-3.753c1.547-1.012,3.424-1.519,5.629-1.519
			c2.203,0,4.08,0.507,5.631,1.519c1.547,1.014,2.322,2.265,2.322,3.753V451.154z"/>
		<path fill="#FFFFFF" d="M617.213,427.294c0-3.336,1.459-6.196,4.379-8.579c3.635-3.097,8.787-4.647,15.461-4.647
			c6.553,0,11.676,1.519,15.371,4.558c3.039,2.622,4.557,5.511,4.557,8.668v23.86c0,1.43-0.789,2.667-2.367,3.708
			c-1.58,1.043-3.441,1.564-5.586,1.564c-2.205,0-4.082-0.505-5.629-1.519c-1.551-1.013-2.324-2.264-2.324-3.753v-23.771
			c0-1.191-0.402-1.951-1.207-2.279c-0.805-0.327-1.742-0.492-2.814-0.492c-1.193,0-1.996,0.089-2.412,0.268
			c-1.014,0.478-1.52,1.311-1.52,2.502v23.771c0,1.43-0.791,2.667-2.369,3.708c-1.578,1.043-3.439,1.564-5.584,1.564
			c-2.205,0-4.082-0.505-5.631-1.519c-1.551-1.013-2.324-2.264-2.324-3.753V427.294z"/>
		<path fill="#FFFFFF" d="M707.023,427.294c0-3.336,1.459-6.196,4.379-8.579c3.635-3.097,8.787-4.647,15.461-4.647
			c6.553,0,11.676,1.519,15.371,4.558c3.039,2.622,4.557,5.511,4.557,8.668v15.907c0,3.217-1.488,6.077-4.467,8.579
			c-3.635,3.099-8.789,4.647-15.461,4.647c-6.613,0-11.738-1.548-15.371-4.647c-2.979-2.502-4.469-5.362-4.469-8.579V427.294z
			 M722.932,443.111c0,1.132,0.477,1.907,1.43,2.324c0.535,0.239,1.369,0.357,2.502,0.357c1.549,0,2.605-0.208,3.172-0.625
			c0.566-0.417,0.85-1.102,0.85-2.056v-15.728c0-1.191-0.402-1.951-1.207-2.279c-0.805-0.327-1.742-0.492-2.814-0.492
			c-1.193,0-1.996,0.089-2.412,0.268c-1.014,0.478-1.52,1.311-1.52,2.502V443.111z"/>
		<path fill="#FFFFFF" d="M752.152,427.294c0-3.336,1.459-6.196,4.379-8.579c3.635-3.097,8.787-4.647,15.461-4.647h5.988
			c3.752,0,6.998,0.835,9.74,2.502c2.799,1.609,4.199,3.843,4.199,6.703c0,1.43-0.773,2.681-2.322,3.753
			c-1.551,1.073-3.428,1.609-5.631,1.609c-1.906,0-3.545-0.357-4.914-1.072c-1.371-0.715-2.295-1.698-2.771-2.949h-4.289
			c-1.193,0-1.996,0.089-2.412,0.268c-1.014,0.478-1.52,1.311-1.52,2.502v23.771c0,1.43-0.791,2.667-2.369,3.708
			c-1.578,1.043-3.439,1.564-5.584,1.564c-2.205,0-4.082-0.505-5.631-1.519c-1.551-1.013-2.324-2.264-2.324-3.753V427.294z"/>
		<path fill="#FFFFFF" d="M796.389,427.294c0-4.408,2.293-7.833,6.881-10.277c3.754-1.966,8.072-2.949,12.957-2.949h4.021v-10.635
			c0-1.488,0.775-2.739,2.324-3.753c1.549-1.012,3.426-1.519,5.631-1.519c2.203,0,4.08,0.507,5.629,1.519
			c1.549,1.014,2.324,2.265,2.324,3.753v39.768c0,3.217-1.49,6.077-4.469,8.579c-3.635,3.099-8.789,4.647-15.461,4.647
			c-6.611,0-11.736-1.548-15.369-4.647c-2.98-2.502-4.469-5.362-4.469-8.579V427.294z M812.295,443.111
			c0,1.132,0.477,1.907,1.43,2.324c0.537,0.239,1.371,0.357,2.502,0.357c1.549,0,2.607-0.208,3.174-0.625
			c0.564-0.417,0.848-1.102,0.848-2.056v-18.499h-3.842c-1.729,0-2.92,0.328-3.574,0.983c-0.357,0.357-0.537,0.924-0.537,1.698
			V443.111z"/>
		<path fill="#FFFFFF" d="M857.424,443.201c0,1.729,1.369,2.592,4.111,2.592h4.109c0.416-1.073,1.342-1.996,2.771-2.771
			c1.43-0.773,3.066-1.162,4.914-1.162c2.203,0,4.08,0.507,5.631,1.519c1.549,1.014,2.322,2.265,2.322,3.753
			c0,1.251-0.328,2.428-0.982,3.53c-0.656,1.103-1.58,2.086-2.77,2.949c-1.193,0.864-2.652,1.55-4.379,2.055
			c-1.729,0.507-3.664,0.76-5.809,0.76h-5.988c-4.945,0-9.234-0.983-12.869-2.949c-4.646-2.382-6.971-5.809-6.971-10.277v-15.907
			c0-3.336,1.459-6.196,4.379-8.579c3.635-3.097,8.787-4.647,15.461-4.647c6.553,0,11.676,1.519,15.371,4.558
			c3.039,2.622,4.557,5.511,4.557,8.668c0,3.217-1.488,6.077-4.467,8.579c-3.635,3.099-8.789,4.647-15.461,4.647h-3.932V443.201z
			 M857.424,429.975h3.932c1.549,0,2.605-0.208,3.172-0.625c0.566-0.416,0.85-1.102,0.85-2.055c0-1.131-0.402-1.861-1.207-2.189
			c-0.805-0.327-1.742-0.492-2.814-0.492c-1.193,0-1.996,0.089-2.412,0.268c-1.014,0.478-1.52,1.311-1.52,2.502V429.975z"/>
		<path fill="#FFFFFF" d="M886.645,427.294c0-3.336,1.459-6.196,4.379-8.579c3.635-3.097,8.787-4.647,15.461-4.647h5.988
			c3.752,0,6.998,0.835,9.74,2.502c2.799,1.609,4.199,3.843,4.199,6.703c0,1.43-0.773,2.681-2.322,3.753
			c-1.551,1.073-3.428,1.609-5.631,1.609c-1.906,0-3.545-0.357-4.914-1.072c-1.371-0.715-2.295-1.698-2.771-2.949h-4.289
			c-1.193,0-1.996,0.089-2.412,0.268c-1.014,0.478-1.52,1.311-1.52,2.502v23.771c0,1.43-0.791,2.667-2.369,3.708
			c-1.578,1.043-3.439,1.564-5.584,1.564c-2.205,0-4.082-0.505-5.631-1.519c-1.551-1.013-2.324-2.264-2.324-3.753V427.294z"/>
	</g>
</g>
</svg>
